<svg width="206" height="55" viewBox="0 0 206 55" fill="none" xmlns="http://www.w3.org/2000/svg">
<path d="M39.9062 3.14062C39.2188 3.14062 38.4844 3.15625 37.7031 3.1875C36.9219 3.21875 36.1094 3.28906 35.2656 3.39844C34.4219 3.49219 33.5625 3.64062 32.6875 3.84375C31.8125 4.03125 30.9375 4.28125 30.0625 4.59375C29.25 4.89063 28.4609 5.24219 27.6953 5.64844C26.9297 6.03906 26.2422 6.49219 25.6328 7.00781C25.0391 7.50781 24.5547 8.0625 24.1797 8.67188C23.8203 9.28125 23.6406 9.9375 23.6406 10.6406C23.6406 11.0469 23.7109 11.3828 23.8516 11.6484C23.9922 11.9141 24.1562 12.0469 24.3438 12.0469C24.9062 12.0469 25.4844 11.9297 26.0781 11.6953C26.6875 11.4609 27.2891 11.1562 27.8828 10.7812C28.4766 10.3906 29.0547 9.95312 29.6172 9.46875C30.1953 8.96875 30.7344 8.46875 31.2344 7.96875C31.7344 7.45312 32.1875 6.95313 32.5938 6.46875C33.0156 5.98437 33.375 5.54688 33.6719 5.15625L34.0469 5.76562C33.2812 7.23438 32.4141 8.54688 31.4453 9.70312C31.0234 10.2031 30.5625 10.6875 30.0625 11.1562C29.5625 11.625 29.0156 12.0469 28.4219 12.4219C27.8438 12.7812 27.2188 13.0781 26.5469 13.3125C25.875 13.5312 25.1719 13.6406 24.4375 13.6406C24.1094 13.6406 23.8047 13.5625 23.5234 13.4062C23.2578 13.2344 23.0234 13.0156 22.8203 12.75C22.6172 12.4844 22.4609 12.1797 22.3516 11.8359C22.2422 11.4922 22.1875 11.1406 22.1875 10.7812C22.1875 10.3438 22.2734 9.90625 22.4453 9.46875C22.6172 9.01562 22.8438 8.57812 23.125 8.15625C23.4219 7.71875 23.7656 7.30469 24.1562 6.91406C24.5469 6.52344 24.9688 6.17187 25.4219 5.85938C26.2969 5.25 27.2891 4.71094 28.3984 4.24219C29.5078 3.77344 30.6797 3.38281 31.9141 3.07031C33.1641 2.75781 34.4375 2.52344 35.7344 2.36719C37.0469 2.19531 38.3438 2.10938 39.625 2.10938C39.8594 2.10938 40.0938 2.10938 40.3281 2.10938C40.5625 2.10938 40.7969 2.125 41.0312 2.15625C41.7812 2.20312 42.4844 2.29688 43.1406 2.4375C44.4062 1.78125 45.7188 1.26562 47.0781 0.890625L47.4531 1.5C47.0312 1.76562 46.6094 2.02344 46.1875 2.27344C45.7812 2.50781 45.3906 2.76562 45.0156 3.04688C45.9531 3.46875 46.6562 4.01562 47.125 4.6875C47.5938 5.35938 47.8281 6.10938 47.8281 6.9375C47.8281 7.57812 47.7109 8.21875 47.4766 8.85938C47.2578 9.48438 46.9453 10.0938 46.5391 10.6875C46.1484 11.2656 45.6719 11.8125 45.1094 12.3281C44.5625 12.8438 43.9688 13.2969 43.3281 13.6875C43.7656 14.3125 43.9844 14.9531 43.9844 15.6094C43.9844 16.4062 43.75 17.2422 43.2812 18.1172C42.8281 18.9766 42.2188 19.8516 41.4531 20.7422C40.7031 21.6328 39.8438 22.5234 38.875 23.4141C37.9062 24.3047 36.9141 25.1719 35.8984 26.0156C34.8984 26.8438 33.9141 27.6484 32.9453 28.4297C31.9922 29.1953 31.1328 29.9062 30.3672 30.5625C29.6172 31.2031 29.0078 31.7812 28.5391 32.2969C28.0859 32.7969 27.8594 33.2031 27.8594 33.5156C27.8594 33.8281 27.9141 34.0781 28.0234 34.2656C28.1484 34.4375 28.3047 34.5703 28.4922 34.6641C28.6953 34.7578 28.9219 34.8203 29.1719 34.8516C29.4375 34.8672 29.7188 34.875 30.0156 34.875C30.6719 34.875 31.4219 34.7734 32.2656 34.5703C33.1094 34.3516 33.9688 34.0859 34.8438 33.7734C35.7344 33.4609 36.6016 33.1172 37.4453 32.7422C38.3047 32.3672 39.0781 32.0156 39.7656 31.6875L40 32.25C37.625 33.4062 35.4766 34.3203 33.5547 34.9922C31.6328 35.6641 30 36 28.6562 36C28.2812 36 27.8906 35.9688 27.4844 35.9062C27.0781 35.8438 26.7031 35.7109 26.3594 35.5078C26.0156 35.3047 25.7344 35.0156 25.5156 34.6406C25.2969 34.2656 25.1875 33.7656 25.1875 33.1406C25.1875 32.5625 25.4141 31.9375 25.8672 31.2656C26.3359 30.5781 26.9453 29.8672 27.6953 29.1328C28.4453 28.3984 29.2969 27.6406 30.25 26.8594C31.2031 26.0625 32.1797 25.2656 33.1797 24.4688C34.1797 23.6562 35.1562 22.8438 36.1094 22.0312C37.0625 21.2188 37.9141 20.4219 38.6641 19.6406C39.4141 18.8438 40.0156 18.0703 40.4688 17.3203C40.9375 16.5547 41.1719 15.8281 41.1719 15.1406C41.1719 15.0156 41.1484 14.8828 41.1016 14.7422C41.0703 14.6016 41.0156 14.4844 40.9375 14.3906C40.7344 14.5625 40.5234 14.6953 40.3047 14.7891C40.0859 14.8672 39.875 14.9297 39.6719 14.9766C39.4688 15.0078 39.2891 15.0312 39.1328 15.0469C38.9922 15.0469 38.8906 15.0469 38.8281 15.0469C38.4688 15.0469 38.1484 14.9922 37.8672 14.8828C37.6016 14.7578 37.375 14.6172 37.1875 14.4609C37 14.2891 36.8594 14.1094 36.7656 13.9219C36.6719 13.7188 36.625 13.5312 36.625 13.3594C36.625 12.9375 36.8047 12.5625 37.1641 12.2344C37.5391 11.8906 38.125 11.7188 38.9219 11.7188C39.5312 11.7188 40.0859 11.7969 40.5859 11.9531C41.1016 12.0938 41.5625 12.2812 41.9688 12.5156C42.3906 12.1562 42.8047 11.7578 43.2109 11.3203C43.6172 10.8672 43.9844 10.4062 44.3125 9.9375C44.6406 9.45312 44.8984 8.97656 45.0859 8.50781C45.2891 8.02344 45.3906 7.5625 45.3906 7.125C45.3906 6.46875 45.2812 5.85938 45.0625 5.29688C44.8594 4.73438 44.4375 4.26562 43.7969 3.89062C42.75 4.6875 41.7734 5.50781 40.8672 6.35156C39.9766 7.19531 39.1328 8.03906 38.3359 8.88281C37.5391 9.71094 36.7969 10.5234 36.1094 11.3203C35.4219 12.1172 34.7656 12.8594 34.1406 13.5469C33.6719 14.0781 33.125 14.7031 32.5 15.4219C31.875 16.1406 31.1953 16.9219 30.4609 17.7656C29.7266 18.5938 28.9609 19.4609 28.1641 20.3672C27.3672 21.2734 26.5625 22.1875 25.75 23.1094C24.9531 24.0156 24.1562 24.9062 23.3594 25.7812C22.5625 26.6406 21.8125 27.4375 21.1094 28.1719C20.0156 29.3125 18.8984 30.3594 17.7578 31.3125C16.6172 32.2656 15.4297 33.0938 14.1953 33.7969C12.9609 34.4844 11.6797 35.0234 10.3516 35.4141C9.02344 35.8047 7.625 36 6.15625 36C4.45312 36 3.13281 35.6719 2.19531 35.0156C1.27344 34.3594 0.8125 33.5 0.8125 32.4375C0.8125 32.0469 0.875 31.6484 1 31.2422C1.125 30.8203 1.3125 30.4453 1.5625 30.1172C1.82812 29.7734 2.14844 29.5 2.52344 29.2969C2.91406 29.0781 3.35938 28.9688 3.85938 28.9688C4.42188 28.9688 4.85938 29.1172 5.17188 29.4141C5.48438 29.7109 5.64062 30.1406 5.64062 30.7031C5.64062 31.2188 5.51562 31.6406 5.26562 31.9688C5.03125 32.2812 4.77344 32.5469 4.49219 32.7656C4.21094 32.9844 3.94531 33.1875 3.69531 33.375C3.46094 33.5469 3.34375 33.75 3.34375 33.9844C3.34375 34.3125 3.53125 34.5625 3.90625 34.7344C4.28125 34.8906 4.79688 34.9688 5.45312 34.9688C6.70312 34.9688 7.86719 34.7812 8.94531 34.4062C10.0234 34.0312 11.0547 33.5078 12.0391 32.8359C13.0234 32.1641 13.9844 31.3594 14.9219 30.4219C15.875 29.4844 16.8438 28.4531 17.8281 27.3281C19.3438 25.6094 20.9766 23.7656 22.7266 21.7969C24.4922 19.8281 26.2969 17.7969 28.1406 15.7031C29.0469 14.6719 30.0156 13.5938 31.0469 12.4688C32.0938 11.3438 33.1875 10.2344 34.3281 9.14062C35.4688 8.03125 36.6562 6.97656 37.8906 5.97656C39.125 4.96094 40.3906 4.0625 41.6875 3.28125C41.1719 3.1875 40.5781 3.14062 39.9062 3.14062ZM57.9531 32.25C55.9531 33.1719 54.2812 33.8906 52.9375 34.4062C51.5938 34.9219 50.4453 35.3125 49.4922 35.5781C48.5547 35.8281 47.7422 35.9844 47.0547 36.0469C46.3672 36.1094 45.6719 36.1406 44.9688 36.1406C44.4219 36.1406 43.8984 36.0703 43.3984 35.9297C42.9141 35.7891 42.4844 35.5703 42.1094 35.2734C41.7344 34.9766 41.4375 34.5938 41.2188 34.125C41 33.6562 40.8906 33.0938 40.8906 32.4375C40.8906 31.6875 41.0469 30.9141 41.3594 30.1172C41.6875 29.3047 42.1328 28.5156 42.6953 27.75C43.2578 26.9688 43.9141 26.2344 44.6641 25.5469C45.4297 24.8594 46.2578 24.2578 47.1484 23.7422C48.0391 23.2109 48.9688 22.7969 49.9375 22.5C50.9219 22.1875 51.9062 22.0312 52.8906 22.0312C53.2344 22.0312 53.6406 22.0625 54.1094 22.125C54.5781 22.1875 55.0234 22.3125 55.4453 22.5C55.8672 22.6719 56.2266 22.9141 56.5234 23.2266C56.8203 23.5391 56.9688 23.9375 56.9688 24.4219C56.9688 24.8594 56.7656 25.3125 56.3594 25.7812C55.9531 26.25 55.4062 26.7266 54.7188 27.2109C54.0469 27.6797 53.2656 28.1484 52.375 28.6172C51.4844 29.0859 50.5625 29.5391 49.6094 29.9766C48.6719 30.3984 47.7266 30.7969 46.7734 31.1719C45.8203 31.5469 44.9375 31.875 44.125 32.1562C44.0938 32.2812 44.0781 32.4062 44.0781 32.5312C44.0781 32.6562 44.0781 32.7812 44.0781 32.9062C44.0781 33.5 44.2734 33.9922 44.6641 34.3828C45.0547 34.7734 45.5938 34.9688 46.2812 34.9688C46.8906 34.9688 47.4922 34.9453 48.0859 34.8984C48.6797 34.8516 49.3906 34.7266 50.2188 34.5234C51.0469 34.3047 52.0547 33.9766 53.2422 33.5391C54.4297 33.0859 55.9219 32.4688 57.7188 31.6875L57.9531 32.25ZM52.5625 23.4844C52.1562 23.4844 51.7031 23.6016 51.2031 23.8359C50.7031 24.0547 50.1797 24.3594 49.6328 24.75C49.0859 25.125 48.5391 25.5703 47.9922 26.0859C47.4609 26.6016 46.9531 27.1562 46.4688 27.75C46 28.3281 45.5781 28.9297 45.2031 29.5547C44.8281 30.1641 44.5469 30.7656 44.3594 31.3594C45.0469 31.1094 45.7578 30.8359 46.4922 30.5391C47.2422 30.2422 47.9688 29.9297 48.6719 29.6016C49.3906 29.2734 50.0703 28.9297 50.7109 28.5703C51.3516 28.1953 51.9141 27.8047 52.3984 27.3984C52.8828 26.9922 53.2656 26.5781 53.5469 26.1562C53.8281 25.7188 53.9688 25.2656 53.9688 24.7969C53.9688 24.4219 53.8672 24.1094 53.6641 23.8594C53.4766 23.6094 53.1094 23.4844 52.5625 23.4844ZM81.1094 14.7188C79.7969 16.1094 78.4609 17.3594 77.1016 18.4688C75.7422 19.5781 74.3438 20.6641 72.9062 21.7266C71.4844 22.7734 70.0234 23.8594 68.5234 24.9844C67.0234 26.0938 65.4688 27.3438 63.8594 28.7344C64.0625 29.0312 64.2812 29.4375 64.5156 29.9531C64.7656 30.4688 65.0781 30.9766 65.4531 31.4766C65.8281 31.9766 66.2812 32.4141 66.8125 32.7891C67.3438 33.1484 68 33.3281 68.7812 33.3281C69.4375 33.3281 70.2031 33.2109 71.0781 32.9766C71.9688 32.7266 73.0156 32.2969 74.2188 31.6875L74.4531 32.25C72.9688 33 71.7188 33.5234 70.7031 33.8203C69.7031 34.1172 68.8594 34.2656 68.1719 34.2656C67.5938 34.2656 67.0859 34.1562 66.6484 33.9375C66.2266 33.7188 65.8516 33.4453 65.5234 33.1172C65.2109 32.7734 64.9375 32.4062 64.7031 32.0156C64.4688 31.625 64.2578 31.2656 64.0703 30.9375C63.8984 30.5938 63.7344 30.3125 63.5781 30.0938C63.4219 29.875 63.2656 29.7656 63.1094 29.7656C63.0312 29.7656 62.9688 29.7734 62.9219 29.7891C62.875 29.8047 62.8125 29.8281 62.7344 29.8594C62.5312 30.1094 62.3203 30.3672 62.1016 30.6328C61.8984 30.8828 61.6719 31.1641 61.4219 31.4766C61.1875 31.7734 60.9219 32.1016 60.625 32.4609C60.3281 32.8203 60 33.2188 59.6406 33.6562C59.2188 34.4375 58.8047 35.2734 58.3984 36.1641C57.9922 37.0703 57.6016 37.9844 57.2266 38.9062C56.8672 39.8438 56.5312 40.7578 56.2188 41.6484C55.9062 42.5391 55.6406 43.3594 55.4219 44.1094C55.2031 44.8594 54.9531 45.6406 54.6719 46.4531C54.3906 47.2812 54.0781 48.0781 53.7344 48.8438C53.3906 49.625 53.0156 50.3594 52.6094 51.0469C52.2031 51.75 51.7656 52.3438 51.2969 52.8281C50.8906 53.2344 50.4219 53.5469 49.8906 53.7656C49.3438 53.9844 48.7969 54.0938 48.25 54.0938C47.9062 54.0938 47.5859 54.0391 47.2891 53.9297C46.9766 53.8359 46.7031 53.6797 46.4688 53.4609C46.2344 53.2578 46.0547 52.9844 45.9297 52.6406C45.7891 52.3125 45.7188 51.9062 45.7188 51.4219C45.7188 50.5312 45.9922 49.4609 46.5391 48.2109C47.0703 46.9609 47.7812 45.6094 48.6719 44.1562C49.5625 42.7031 50.5859 41.1875 51.7422 39.6094C52.8828 38.0469 54.0625 36.5 55.2812 34.9688C56.5 33.4219 57.7031 31.9375 58.8906 30.5156C60.0938 29.0781 61.1875 27.7812 62.1719 26.625L66.8594 21.0938C68.1094 19.6094 69.4062 18.0781 70.75 16.5C72.0938 14.9062 73.4844 13.3281 74.9219 11.7656C75.2344 11.4219 75.6484 11 76.1641 10.5C76.6797 10 77.25 9.47656 77.875 8.92969C78.5 8.36719 79.1562 7.8125 79.8438 7.26562C80.5469 6.71875 81.2344 6.22656 81.9062 5.78906C82.5938 5.35156 83.2422 5 83.8516 4.73438C84.4766 4.45312 85.0312 4.3125 85.5156 4.3125C86.1562 4.3125 86.6094 4.42969 86.875 4.66406C87.1562 4.89844 87.2969 5.21875 87.2969 5.625C87.2969 6.07812 87.1562 6.60156 86.875 7.19531C86.5938 7.78906 86.2344 8.41406 85.7969 9.07031C85.375 9.71094 84.9062 10.3516 84.3906 10.9922C83.8906 11.6172 83.4062 12.1953 82.9375 12.7266C82.4844 13.2578 82.0859 13.7031 81.7422 14.0625C81.3984 14.4219 81.1875 14.6406 81.1094 14.7188ZM78.9062 11.6719C76.9219 13.6562 75.0156 15.6953 73.1875 17.7891C71.3594 19.8672 69.5625 22.0156 67.7969 24.2344C68.7031 23.5 69.6094 22.7891 70.5156 22.1016C71.4375 21.3984 72.3516 20.6953 73.2578 19.9922C74.1797 19.2891 75.0938 18.5781 76 17.8594C76.9219 17.125 77.8438 16.3594 78.7656 15.5625C79.2812 15.1094 79.7969 14.625 80.3125 14.1094C80.8438 13.5938 81.3516 13.0703 81.8359 12.5391C82.3359 11.9922 82.7969 11.4531 83.2188 10.9219C83.6562 10.3906 84.0312 9.89062 84.3438 9.42188C84.6719 8.9375 84.9219 8.5 85.0938 8.10938C85.2812 7.70313 85.375 7.35938 85.375 7.07812C85.375 6.85938 85.2656 6.75 85.0469 6.75C84.7344 6.75 84.3438 6.90625 83.875 7.21875C83.4062 7.51563 82.8906 7.90625 82.3281 8.39062C81.7812 8.85938 81.2109 9.39062 80.6172 9.98438C80.0234 10.5625 79.4531 11.125 78.9062 11.6719ZM55.3281 41.625C55.6562 40.6562 56 39.7344 56.3594 38.8594C56.7188 37.9844 57.1094 37.125 57.5312 36.2812C57.2656 36.6094 56.9922 36.9453 56.7109 37.2891C56.4297 37.6484 56.125 38.0312 55.7969 38.4375C54.8594 39.5938 53.9297 40.7969 53.0078 42.0469C52.0859 43.2969 51.2578 44.5078 50.5234 45.6797C49.7891 46.8516 49.1953 47.9297 48.7422 48.9141C48.2891 49.8984 48.0625 50.7031 48.0625 51.3281C48.0625 51.9375 48.1719 52.3438 48.3906 52.5469C48.5938 52.7656 48.8281 52.875 49.0938 52.875C49.3438 52.875 49.6094 52.7812 49.8906 52.5938C50.1719 52.4219 50.4453 52.2031 50.7109 51.9375C50.9766 51.6719 51.2266 51.375 51.4609 51.0469C51.6797 50.7344 51.8594 50.4375 52 50.1562C52.4531 49.3125 52.9375 48.2031 53.4531 46.8281C53.9688 45.4531 54.5938 43.7188 55.3281 41.625ZM93.9531 14.5781C93.0156 15.5625 92.1719 16.4453 91.4219 17.2266C90.6719 18.0078 89.9297 18.7656 89.1953 19.5C88.4609 20.2188 87.6953 20.9609 86.8984 21.7266C86.1016 22.4766 85.1875 23.3203 84.1562 24.2578C83.125 25.1797 81.9297 26.2344 80.5703 27.4219C79.2266 28.6094 77.6406 30 75.8125 31.5938C75.6406 32.0156 75.5078 32.4062 75.4141 32.7656C75.3359 33.1094 75.2969 33.4219 75.2969 33.7031C75.2969 33.9219 75.3594 34.1094 75.4844 34.2656C75.6094 34.4062 75.7656 34.5234 75.9531 34.6172C76.1562 34.7109 76.375 34.7812 76.6094 34.8281C76.8594 34.8594 77.0938 34.875 77.3125 34.875C77.7344 34.875 78.2266 34.8281 78.7891 34.7344C79.3672 34.6406 80.0391 34.4766 80.8047 34.2422C81.5859 33.9922 82.4844 33.6641 83.5 33.2578C84.5312 32.8516 85.7188 32.3281 87.0625 31.6875L87.2969 32.25C85.8906 32.9219 84.625 33.4922 83.5 33.9609C82.375 34.4297 81.3516 34.8203 80.4297 35.1328C79.5234 35.4297 78.6953 35.6484 77.9453 35.7891C77.2109 35.9297 76.5312 36 75.9062 36C75.2656 36 74.7344 35.9375 74.3125 35.8125C73.9062 35.6875 73.5781 35.5234 73.3281 35.3203C73.0938 35.1016 72.9297 34.8438 72.8359 34.5469C72.7266 34.25 72.6719 33.9219 72.6719 33.5625C72.6719 32.8281 72.8984 31.9297 73.3516 30.8672C73.8203 29.8047 74.4375 28.6484 75.2031 27.3984C75.9844 26.1484 76.8828 24.8359 77.8984 23.4609C78.9141 22.0703 79.9766 20.6875 81.0859 19.3125C82.2109 17.9375 83.3438 16.5938 84.4844 15.2812C85.6406 13.9688 86.7344 12.75 87.7656 11.625C88.0781 11.2812 88.4922 10.8594 89.0078 10.3594C89.5234 9.85938 90.0938 9.33594 90.7188 8.78906C91.3438 8.22656 92 7.67187 92.6875 7.125C93.3906 6.57813 94.0781 6.08594 94.75 5.64844C95.4375 5.21094 96.0859 4.85937 96.6953 4.59375C97.3203 4.3125 97.875 4.17188 98.3594 4.17188C99 4.17188 99.4453 4.32813 99.6953 4.64062C99.9609 4.95312 100.094 5.35938 100.094 5.85938C100.094 6.25 99.9688 6.70312 99.7188 7.21875C99.4688 7.73438 99.1484 8.28125 98.7578 8.85938C98.3672 9.4375 97.9297 10.0234 97.4453 10.6172C96.9766 11.2109 96.5156 11.7656 96.0625 12.2812C95.6094 12.7969 95.1875 13.2578 94.7969 13.6641C94.4219 14.0703 94.1406 14.375 93.9531 14.5781ZM91.75 11.5312C90.9219 12.3594 90.0469 13.2578 89.125 14.2266C88.2031 15.1953 87.2734 16.2031 86.3359 17.25C85.4141 18.2812 84.4922 19.3359 83.5703 20.4141C82.6641 21.4922 81.7969 22.5625 80.9688 23.625C80.1562 24.6719 79.3984 25.6953 78.6953 26.6953C77.9922 27.6797 77.3906 28.6094 76.8906 29.4844C77.75 28.75 78.7109 27.9141 79.7734 26.9766C80.8359 26.0234 81.9453 25.0234 83.1016 23.9766C84.2734 22.9141 85.4531 21.8203 86.6406 20.6953C87.8438 19.5703 89 18.4531 90.1094 17.3438C91.2344 16.2188 92.2891 15.1328 93.2734 14.0859C94.2578 13.0234 95.1172 12.0391 95.8516 11.1328C96.5859 10.2266 97.1641 9.41406 97.5859 8.69531C98.0078 7.97656 98.2188 7.39062 98.2188 6.9375C98.2188 6.71875 98.1094 6.60938 97.8906 6.60938C97.5781 6.60938 97.1875 6.76563 96.7188 7.07812C96.25 7.375 95.7344 7.76562 95.1719 8.25C94.625 8.71875 94.0547 9.25 93.4609 9.84375C92.8672 10.4219 92.2969 10.9844 91.75 11.5312ZM103.047 32.25C101.047 33.1719 99.375 33.8906 98.0312 34.4062C96.6875 34.9219 95.5391 35.3125 94.5859 35.5781C93.6484 35.8281 92.8359 35.9844 92.1484 36.0469C91.4609 36.1094 90.7656 36.1406 90.0625 36.1406C89.5156 36.1406 88.9922 36.0703 88.4922 35.9297C88.0078 35.7891 87.5781 35.5703 87.2031 35.2734C86.8281 34.9766 86.5312 34.5938 86.3125 34.125C86.0938 33.6562 85.9844 33.0938 85.9844 32.4375C85.9844 31.6875 86.1406 30.9141 86.4531 30.1172C86.7812 29.3047 87.2266 28.5156 87.7891 27.75C88.3516 26.9688 89.0078 26.2344 89.7578 25.5469C90.5234 24.8594 91.3516 24.2578 92.2422 23.7422C93.1328 23.2109 94.0625 22.7969 95.0312 22.5C96.0156 22.1875 97 22.0312 97.9844 22.0312C98.3281 22.0312 98.7344 22.0625 99.2031 22.125C99.6719 22.1875 100.117 22.3125 100.539 22.5C100.961 22.6719 101.32 22.9141 101.617 23.2266C101.914 23.5391 102.062 23.9375 102.062 24.4219C102.062 24.8594 101.859 25.3125 101.453 25.7812C101.047 26.25 100.5 26.7266 99.8125 27.2109C99.1406 27.6797 98.3594 28.1484 97.4688 28.6172C96.5781 29.0859 95.6562 29.5391 94.7031 29.9766C93.7656 30.3984 92.8203 30.7969 91.8672 31.1719C90.9141 31.5469 90.0312 31.875 89.2188 32.1562C89.1875 32.2812 89.1719 32.4062 89.1719 32.5312C89.1719 32.6562 89.1719 32.7812 89.1719 32.9062C89.1719 33.5 89.3672 33.9922 89.7578 34.3828C90.1484 34.7734 90.6875 34.9688 91.375 34.9688C91.9844 34.9688 92.5859 34.9453 93.1797 34.8984C93.7734 34.8516 94.4844 34.7266 95.3125 34.5234C96.1406 34.3047 97.1484 33.9766 98.3359 33.5391C99.5234 33.0859 101.016 32.4688 102.812 31.6875L103.047 32.25ZM97.6562 23.4844C97.25 23.4844 96.7969 23.6016 96.2969 23.8359C95.7969 24.0547 95.2734 24.3594 94.7266 24.75C94.1797 25.125 93.6328 25.5703 93.0859 26.0859C92.5547 26.6016 92.0469 27.1562 91.5625 27.75C91.0938 28.3281 90.6719 28.9297 90.2969 29.5547C89.9219 30.1641 89.6406 30.7656 89.4531 31.3594C90.1406 31.1094 90.8516 30.8359 91.5859 30.5391C92.3359 30.2422 93.0625 29.9297 93.7656 29.6016C94.4844 29.2734 95.1641 28.9297 95.8047 28.5703C96.4453 28.1953 97.0078 27.8047 97.4922 27.3984C97.9766 26.9922 98.3594 26.5781 98.6406 26.1562C98.9219 25.7188 99.0625 25.2656 99.0625 24.7969C99.0625 24.4219 98.9609 24.1094 98.7578 23.8594C98.5703 23.6094 98.2031 23.4844 97.6562 23.4844ZM104.594 32.3438C104.594 32.7812 104.68 33.1562 104.852 33.4688C105.023 33.7656 105.266 34.0078 105.578 34.1953C105.891 34.3828 106.266 34.5234 106.703 34.6172C107.141 34.6953 107.625 34.7344 108.156 34.7344C109.484 34.7344 110.945 34.4766 112.539 33.9609C114.148 33.4297 116.031 32.625 118.188 31.5469L118.422 32.1094C117.641 32.6094 116.742 33.1016 115.727 33.5859C114.711 34.0547 113.648 34.4766 112.539 34.8516C111.445 35.2109 110.336 35.5 109.211 35.7188C108.086 35.9375 107.031 36.0469 106.047 36.0469C105.328 36.0469 104.664 35.9844 104.055 35.8594C103.445 35.7188 102.914 35.5 102.461 35.2031C102.023 34.9062 101.68 34.5234 101.43 34.0547C101.164 33.5859 101.031 33.0156 101.031 32.3438C101.031 31.625 101.203 30.8672 101.547 30.0703C101.891 29.2578 102.352 28.4609 102.93 27.6797C103.523 26.8984 104.203 26.1562 104.969 25.4531C105.75 24.7344 106.57 24.1094 107.43 23.5781C108.289 23.0312 109.156 22.6016 110.031 22.2891C110.906 21.9609 111.75 21.7969 112.562 21.7969C113.078 21.7969 113.562 21.8438 114.016 21.9375C114.469 22.0312 114.859 22.1797 115.188 22.3828C115.516 22.5703 115.773 22.8281 115.961 23.1562C116.164 23.4688 116.266 23.8438 116.266 24.2812C116.266 24.6406 116.18 24.9922 116.008 25.3359C115.852 25.6797 115.633 25.9844 115.352 26.25C115.07 26.5156 114.75 26.7344 114.391 26.9062C114.031 27.0625 113.656 27.1406 113.266 27.1406C112.766 27.1406 112.406 27.0234 112.188 26.7891C111.969 26.5547 111.859 26.3281 111.859 26.1094C111.859 25.7188 111.977 25.4141 112.211 25.1953C112.461 24.9766 112.734 24.7969 113.031 24.6562C113.328 24.5 113.594 24.3672 113.828 24.2578C114.078 24.1328 114.203 23.9844 114.203 23.8125C114.203 23.625 114.141 23.4922 114.016 23.4141C113.891 23.3359 113.734 23.2969 113.547 23.2969C112.875 23.2969 112.188 23.4609 111.484 23.7891C110.781 24.1016 110.094 24.5234 109.422 25.0547C108.766 25.5703 108.141 26.1562 107.547 26.8125C106.969 27.4531 106.461 28.1094 106.023 28.7812C105.586 29.4531 105.234 30.1016 104.969 30.7266C104.719 31.3516 104.594 31.8906 104.594 32.3438ZM132.25 15.75C132.703 15.2031 133.156 14.6562 133.609 14.1094C134.078 13.5625 134.547 13.0156 135.016 12.4688C135.312 12.125 135.656 11.7188 136.047 11.25C136.438 10.7812 136.852 10.2969 137.289 9.79688C137.742 9.28125 138.195 8.78125 138.648 8.29688C139.117 7.8125 139.555 7.375 139.961 6.98438C140.383 6.59375 140.758 6.28125 141.086 6.04688C141.414 5.79687 141.672 5.67188 141.859 5.67188C141.984 5.67188 142.156 5.69531 142.375 5.74219C142.594 5.78906 142.805 5.85938 143.008 5.95312C143.227 6.03125 143.406 6.14062 143.547 6.28125C143.703 6.40625 143.781 6.54687 143.781 6.70312C143.781 6.875 143.664 7.09375 143.43 7.35938C143.211 7.625 142.938 7.9375 142.609 8.29688L138.719 12.7031C138.609 12.8125 138.453 12.9844 138.25 13.2188C138.047 13.4375 137.812 13.7031 137.547 14.0156C137.297 14.3125 137.023 14.6328 136.727 14.9766C136.43 15.3047 136.141 15.625 135.859 15.9375L141.344 16.2656L140.312 17.8125H134.219C133.406 18.7344 132.586 19.6719 131.758 20.625C130.945 21.5625 130.156 22.4766 129.391 23.3672C128.625 24.2578 127.898 25.1016 127.211 25.8984C126.523 26.6953 125.906 27.4141 125.359 28.0547C124.828 28.6953 124.367 29.2422 123.977 29.6953C123.602 30.1328 123.344 30.4375 123.203 30.6094C122.641 31.2656 122.18 31.8828 121.82 32.4609C121.461 33.0234 121.281 33.4688 121.281 33.7969C121.281 34.2031 121.406 34.4609 121.656 34.5703C121.922 34.6797 122.281 34.7344 122.734 34.7344C123.156 34.7344 123.672 34.7031 124.281 34.6406C124.906 34.5625 125.625 34.4141 126.438 34.1953C127.266 33.9766 128.195 33.6719 129.227 33.2812C130.273 32.875 131.438 32.3438 132.719 31.6875L132.953 32.25C131.75 32.9688 130.555 33.5703 129.367 34.0547C128.195 34.5391 127.062 34.9297 125.969 35.2266C124.891 35.5234 123.875 35.7344 122.922 35.8594C121.969 35.9844 121.125 36.0469 120.391 36.0469C119.547 36.0469 118.93 35.8438 118.539 35.4375C118.148 35.0156 117.953 34.4531 117.953 33.75C117.953 33.2969 118.133 32.7578 118.492 32.1328C118.867 31.5078 119.469 30.6875 120.297 29.6719C120.391 29.5625 120.594 29.3203 120.906 28.9453C121.234 28.5547 121.648 28.0703 122.148 27.4922C122.648 26.9141 123.219 26.25 123.859 25.5C124.5 24.75 125.18 23.9609 125.898 23.1328C126.633 22.2891 127.391 21.4219 128.172 20.5312C128.953 19.625 129.734 18.7188 130.516 17.8125H126.016L127.75 15.4688L132.25 15.75ZM149.734 15.9375C149.734 16.2031 149.664 16.4531 149.523 16.6875C149.383 16.9219 149.195 17.125 148.961 17.2969C148.742 17.4688 148.484 17.6094 148.188 17.7188C147.891 17.8125 147.594 17.8594 147.297 17.8594C147.078 17.8594 146.859 17.8359 146.641 17.7891C146.438 17.7422 146.242 17.6562 146.055 17.5312C145.883 17.4062 145.742 17.2422 145.633 17.0391C145.523 16.8203 145.469 16.5469 145.469 16.2188C145.469 15.9375 145.547 15.6953 145.703 15.4922C145.859 15.2891 146.055 15.125 146.289 15C146.523 14.875 146.789 14.7812 147.086 14.7188C147.383 14.6562 147.672 14.625 147.953 14.625C148.422 14.625 148.812 14.7344 149.125 14.9531C149.453 15.1562 149.656 15.4844 149.734 15.9375ZM135.859 32.25C135.625 32.5312 135.438 32.8203 135.297 33.1172C135.172 33.3984 135.109 33.625 135.109 33.7969C135.109 34.2031 135.234 34.4609 135.484 34.5703C135.75 34.6797 136.109 34.7344 136.562 34.7344C136.984 34.7344 137.5 34.7031 138.109 34.6406C138.734 34.5625 139.453 34.4141 140.266 34.1953C141.094 33.9766 142.023 33.6719 143.055 33.2812C144.102 32.875 145.266 32.3438 146.547 31.6875L146.781 32.25C145.578 32.9688 144.383 33.5703 143.195 34.0547C142.023 34.5391 140.891 34.9297 139.797 35.2266C138.719 35.5234 137.703 35.7344 136.75 35.8594C135.797 35.9844 134.953 36.0469 134.219 36.0469C133.375 36.0469 132.758 35.8438 132.367 35.4375C131.977 35.0156 131.781 34.4531 131.781 33.75C131.781 33.375 131.906 32.9531 132.156 32.4844C132.406 32 132.812 31.3906 133.375 30.6562C133.969 29.9062 134.594 29.1719 135.25 28.4531C135.906 27.7344 136.562 26.9844 137.219 26.2031C137.656 25.6875 138.109 25.1797 138.578 24.6797C139.047 24.1641 139.492 23.7031 139.914 23.2969C140.336 22.8906 140.719 22.5625 141.062 22.3125C141.406 22.0625 141.672 21.9375 141.859 21.9375C141.984 21.9375 142.156 21.9609 142.375 22.0078C142.594 22.0547 142.805 22.125 143.008 22.2188C143.227 22.2969 143.406 22.4062 143.547 22.5469C143.703 22.6719 143.781 22.8125 143.781 22.9688C143.781 23.1406 143.664 23.3594 143.43 23.625C143.211 23.8906 142.938 24.2031 142.609 24.5625L138.719 28.9688C138.609 29.0781 138.445 29.25 138.227 29.4844C138.023 29.7031 137.789 29.9688 137.523 30.2812C137.273 30.5781 137 30.8984 136.703 31.2422C136.406 31.5859 136.125 31.9219 135.859 32.25ZM162.016 31.2188C161.266 31.2188 160.594 31.0938 160 30.8438C159.422 30.5781 158.922 30.2188 158.5 29.7656C157.656 31.0938 156.82 32.1719 155.992 33C155.164 33.8281 154.359 34.4766 153.578 34.9453C152.812 35.4141 152.07 35.7344 151.352 35.9062C150.648 36.0625 149.984 36.1406 149.359 36.1406C148.609 36.1406 147.953 36.0547 147.391 35.8828C146.828 35.6953 146.359 35.4531 145.984 35.1562C145.609 34.8438 145.328 34.4844 145.141 34.0781C144.953 33.6562 144.859 33.2031 144.859 32.7188C144.859 31.7344 145.055 30.7812 145.445 29.8594C145.836 28.9219 146.359 28.0547 147.016 27.2578C147.672 26.4453 148.422 25.7109 149.266 25.0547C150.125 24.3828 151.008 23.8125 151.914 23.3438C152.82 22.8594 153.727 22.4922 154.633 22.2422C155.539 21.9766 156.375 21.8438 157.141 21.8438C157.547 21.8438 157.953 21.875 158.359 21.9375C158.766 22 159.133 22.125 159.461 22.3125C159.789 22.5 160.055 22.7578 160.258 23.0859C160.461 23.4141 160.562 23.8438 160.562 24.375C160.562 24.7344 160.523 25.1094 160.445 25.5C160.383 25.875 160.305 26.2422 160.211 26.6016C160.117 26.9609 160.008 27.3047 159.883 27.6328C159.773 27.9609 159.672 28.25 159.578 28.5C159.703 29.1094 160.039 29.5781 160.586 29.9062C161.148 30.2188 161.75 30.375 162.391 30.375C162.906 30.375 163.422 30.2734 163.938 30.0703C164.469 29.8672 164.938 29.5781 165.344 29.2031L165.812 29.5781C165.406 30.0781 164.859 30.4766 164.172 30.7734C163.484 31.0703 162.766 31.2188 162.016 31.2188ZM150.344 34.7344C150.859 34.7344 151.445 34.625 152.102 34.4062C152.758 34.1875 153.422 33.8438 154.094 33.375C154.781 32.9062 155.453 32.3047 156.109 31.5703C156.766 30.8359 157.359 29.9531 157.891 28.9219C157.359 28.0469 157.094 27.125 157.094 26.1562C157.094 25.6562 157.203 25.2031 157.422 24.7969C157.656 24.375 158 23.9531 158.453 23.5312C158.359 23.4844 158.234 23.4531 158.078 23.4375C157.938 23.4062 157.734 23.3906 157.469 23.3906C156.922 23.3906 156.258 23.5781 155.477 23.9531C154.711 24.3281 153.922 24.8359 153.109 25.4766C152.312 26.1016 151.555 26.8359 150.836 27.6797C150.117 28.5234 149.547 29.4062 149.125 30.3281C148.938 30.7031 148.758 31.1406 148.586 31.6406C148.414 32.125 148.328 32.5938 148.328 33.0469C148.328 33.5156 148.469 33.9141 148.75 34.2422C149.031 34.5703 149.562 34.7344 150.344 34.7344ZM163.984 35.9062C163.906 35.9375 163.828 35.9531 163.75 35.9531C163.672 35.9531 163.594 35.9531 163.516 35.9531C163.328 35.9531 163.148 35.9219 162.977 35.8594C162.789 35.7812 162.625 35.6953 162.484 35.6016C162.344 35.4922 162.234 35.3828 162.156 35.2734C162.062 35.1484 162.016 35.0312 162.016 34.9219C162.016 34.7344 162.078 34.5469 162.203 34.3594C162.312 34.1562 162.453 33.9688 162.625 33.7969L168.859 26.6719C169.328 26.125 169.812 25.5703 170.312 25.0078C170.828 24.4297 171.312 23.9141 171.766 23.4609C172.234 22.9922 172.656 22.6172 173.031 22.3359C173.406 22.0391 173.703 21.8906 173.922 21.8906C174.047 21.8906 174.219 21.9141 174.438 21.9609C174.656 22.0078 174.867 22.0781 175.07 22.1719C175.289 22.25 175.469 22.3594 175.609 22.5C175.766 22.625 175.844 22.7656 175.844 22.9219C175.844 23.0938 175.727 23.3125 175.492 23.5781C175.273 23.8438 175 24.1562 174.672 24.5156L174.297 24.9375C174.641 24.7031 175.086 24.4219 175.633 24.0938C176.195 23.75 176.812 23.4219 177.484 23.1094C178.156 22.7969 178.852 22.5312 179.57 22.3125C180.305 22.0938 181.016 21.9844 181.703 21.9844C182.703 21.9844 183.383 22.1328 183.742 22.4297C184.102 22.7109 184.281 23.1094 184.281 23.625C184.281 24.2188 184.109 24.8359 183.766 25.4766C183.422 26.1016 182.992 26.7266 182.477 27.3516C181.977 27.9766 181.43 28.5938 180.836 29.2031C180.258 29.7969 179.711 30.3672 179.195 30.9141C178.695 31.4609 178.273 31.9766 177.93 32.4609C177.602 32.9297 177.438 33.3438 177.438 33.7031C177.438 33.9219 177.477 34.1016 177.555 34.2422C177.633 34.3672 177.727 34.4688 177.836 34.5469C177.961 34.6094 178.094 34.6484 178.234 34.6641C178.391 34.6797 178.547 34.6875 178.703 34.6875C179.594 34.6875 180.477 34.6016 181.352 34.4297C182.227 34.2578 183.086 34.0312 183.93 33.75C184.789 33.4688 185.633 33.1484 186.461 32.7891C187.289 32.4141 188.094 32.0312 188.875 31.6406L189.109 32.2031C188.594 32.5469 187.883 32.9375 186.977 33.375C186.07 33.8125 185.055 34.2266 183.93 34.6172C182.805 35.0078 181.602 35.3359 180.32 35.6016C179.055 35.8672 177.797 36 176.547 36C175.812 36 175.219 35.8203 174.766 35.4609C174.328 35.1016 174.109 34.5312 174.109 33.75C174.109 33.375 174.234 32.9375 174.484 32.4375C174.734 31.9375 175.055 31.4219 175.445 30.8906C175.852 30.3438 176.297 29.7891 176.781 29.2266C177.281 28.6641 177.766 28.125 178.234 27.6094C178.719 27.0938 179.172 26.6172 179.594 26.1797C180.016 25.7266 180.359 25.3438 180.625 25.0312C180.719 24.8906 180.852 24.7109 181.023 24.4922C181.195 24.2578 181.281 24.0469 181.281 23.8594C181.281 23.7344 181.227 23.6328 181.117 23.5547C181.023 23.4766 180.859 23.4375 180.625 23.4375C180.141 23.4375 179.672 23.4922 179.219 23.6016C178.781 23.6953 178.336 23.8359 177.883 24.0234C177.445 24.2109 176.992 24.4453 176.523 24.7266C176.055 25.0078 175.562 25.3281 175.047 25.6875C173.797 26.5781 172.609 27.5234 171.484 28.5234C170.375 29.5234 169.281 30.5625 168.203 31.6406C167.734 32.1875 167.219 32.7734 166.656 33.3984C166.094 34.0234 165.562 34.5625 165.062 35.0156C164.828 35.2812 164.625 35.4766 164.453 35.6016C164.281 35.7266 164.125 35.8281 163.984 35.9062ZM191.266 28.875C191.5 28.875 191.719 28.9062 191.922 28.9688C192.125 29.0312 192.297 29.1094 192.438 29.2031C193.094 28.75 193.828 28.2422 194.641 27.6797C195.453 27.1016 196.289 26.5156 197.148 25.9219C198.008 25.3125 198.859 24.7109 199.703 24.1172C200.547 23.5078 201.336 22.9453 202.07 22.4297C202.805 21.8984 203.461 21.4297 204.039 21.0234C204.617 20.6016 205.062 20.2812 205.375 20.0625L205.797 20.7656C205.438 21.125 205.133 21.4766 204.883 21.8203C204.648 22.1484 204.461 22.4766 204.32 22.8047C204.18 23.1172 204.078 23.4297 204.016 23.7422C203.953 24.0547 203.922 24.375 203.922 24.7031C203.922 26.2031 203.75 27.5312 203.406 28.6875C203.078 29.8281 202.625 30.8203 202.047 31.6641C201.484 32.4922 200.828 33.1875 200.078 33.75C199.328 34.2969 198.531 34.7422 197.688 35.0859C196.859 35.4141 196.008 35.6484 195.133 35.7891C194.258 35.9297 193.422 36 192.625 36C192.109 36 191.539 35.9375 190.914 35.8125C190.305 35.6719 189.734 35.4688 189.203 35.2031C188.672 34.9219 188.227 34.5703 187.867 34.1484C187.508 33.7266 187.328 33.2188 187.328 32.625C187.328 32.1406 187.438 31.6797 187.656 31.2422C187.875 30.7891 188.164 30.3906 188.523 30.0469C188.898 29.6875 189.32 29.4062 189.789 29.2031C190.273 28.9844 190.766 28.875 191.266 28.875ZM200.781 24.4219C200.109 24.875 199.477 25.2969 198.883 25.6875C198.305 26.0781 197.711 26.4844 197.102 26.9062C196.492 27.3281 195.852 27.7734 195.18 28.2422C194.508 28.7109 193.766 29.2344 192.953 29.8125C193.047 29.9531 193.094 30.0938 193.094 30.2344C193.094 30.5625 193.016 30.8516 192.859 31.1016C192.719 31.3359 192.531 31.5391 192.297 31.7109C192.078 31.8672 191.836 32.0078 191.57 32.1328C191.305 32.2578 191.055 32.375 190.82 32.4844C190.602 32.5938 190.414 32.7109 190.258 32.8359C190.117 32.9453 190.047 33.0781 190.047 33.2344C190.047 33.4375 190.102 33.6172 190.211 33.7734C190.32 33.9141 190.461 34.0312 190.633 34.125C190.805 34.2188 190.992 34.2891 191.195 34.3359C191.398 34.3828 191.594 34.4062 191.781 34.4062C192.156 34.4062 192.539 34.3594 192.93 34.2656C193.336 34.1719 193.719 34.0625 194.078 33.9375C194.891 33.6875 195.672 33.3125 196.422 32.8125C197.188 32.2969 197.875 31.6484 198.484 30.8672C199.094 30.0859 199.602 29.1641 200.008 28.1016C200.414 27.0391 200.672 25.8125 200.781 24.4219Z" fill="white"/>
</svg>
